<svg
  xmlns="http://www.w3.org/2000/svg"
  viewBox="0 0 64 64"
  role="img"
  aria-label="CBCT"
>
  <path
    d="M32 6c-3.8 0-7 1.8-9.3 4.7C20.5 7.9 17.2 6 13.6 6C7.7 6 3 10.8 3 16.7c0 4.7 1.7 8 3.4 11
      1.1 2 2.1 4 2.6 6.4l3.2 16c.4 2.2 2.3 3.8 4.5 3.8 2 0 3.8-1.3 4.4-3.2l2.9-9c.3-.9 1.1-1.5 2.1-1.5h1.8
      c1 0 1.8.6 2.1 1.5l2.9 9c.6 1.9 2.4 3.2 4.4 3.2 2.2 0 4.1-1.6 4.5-3.8l3.2-16c.5-2.4 1.5-4.4 2.6-6.4
      1.7-3 3.4-6.3 3.4-11C61 10.8 56.3 6 50.4 6c-3.6 0-6.9 1.9-9.1 4.7C39 7.8 35.8 6 32 6Z"
    fill="#107aca"
    stroke="#173153"
    stroke-linejoin="round"
    stroke-width="2.2"
  />
  <circle cx="32" cy="22" r="8.5" fill="#ffffff" />
  <path
    d="M32 17.5v9M27.5 22h9"
    fill="none"
    stroke="#107aca"
    stroke-linecap="round"
    stroke-width="2.8"
  />
</svg>
